<svg width="578" height="385" fill="none" xmlns="http://www.w3.org/2000/svg"><rect width="578" height="385" rx="26" fill="#777"/><rect x="2" y="2" width="574.23" height="381.865" rx="25" fill="url(#a)"/><rect opacity=".1" x="54.03" y="16.303" width="471.463" height="353.756" rx="5" fill="#2A2A2A"/><rect x="21.03" y="19.303" width="536" height="346" rx="8" fill="#E8EAF6"/><mask id="b" style="mask-type:alpha" maskUnits="userSpaceOnUse" x="21" y="19" width="537" height="347"><rect x="21.03" y="19.303" width="536" height="346" rx="8" fill="#fff"/></mask><g mask="url(#b)"><path fill="#5267DF" d="M17.5 19.5h547v59h-547z"/><circle opacity=".245" cx="59.5" cy="49.5" r="16" fill="#fff"/><circle opacity=".104" cx="520.5" cy="49.5" r="16" fill="#fff"/><rect opacity=".75" x="90.5" y="39.5" width="120" height="6" rx="3" fill="#fff"/><rect opacity=".25" x="90.5" y="53.5" width="64" height="6" rx="3" fill="#fff"/><rect x="78.03" y="112.303" width="261" height="316" rx="8" fill="#fff"/><rect x="373.03" y="112.303" width="128" height="316" rx="8" fill="#fff"/><rect opacity=".5" x="156.5" y="150.5" width="120" height="6" rx="3" fill="#242A45"/></g><circle cx="125.5" cy="160.5" r="16" fill="#F98E5D"/><rect opacity=".25" x="393.5" y="134.5" width="88" height="6" rx="3" fill="#242A45"/><rect opacity=".25" x="393.5" y="154.5" width="88" height="6" rx="3" fill="#242A45"/><rect opacity=".25" x="393.5" y="174.5" width="88" height="6" rx="3" fill="#242A45"/><rect opacity=".25" x="393.5" y="194.5" width="88" height="6" rx="3" fill="#242A45"/><rect opacity=".25" x="393.5" y="228.5" width="88" height="6" rx="3" fill="#242A45"/><rect opacity=".25" x="393.5" y="248.5" width="88" height="6" rx="3" fill="#242A45"/><rect opacity=".25" x="393.5" y="268.5" width="88" height="6" rx="3" fill="#242A45"/><rect opacity=".25" x="156.5" y="164.5" width="64" height="6" rx="3" fill="#242A45"/><circle cx="125.5" cy="216.5" r="16" fill="#6AC6D6"/><rect opacity=".5" x="156.5" y="206.5" width="120" height="6" rx="3" fill="#242A45"/><rect opacity=".25" x="156.5" y="220.5" width="64" height="6" rx="3" fill="#242A45"/><circle cx="125.5" cy="272.5" r="16" fill="#A47ED4"/><rect opacity=".5" x="156.5" y="262.5" width="120" height="6" rx="3" fill="#242A45"/><rect opacity=".25" x="156.5" y="276.5" width="64" height="6" rx="3" fill="#242A45"/><circle cx="125.5" cy="328.5" r="16" fill="#EC7878"/><rect opacity=".5" x="156.5" y="318.5" width="120" height="6" rx="3" fill="#242A45"/><rect opacity=".25" x="156.5" y="332.5" width="64" height="6" rx="3" fill="#242A45"/><defs><linearGradient id="a" x1="847.542" y1="195.906" x2="507.825" y2="-314.944" gradientUnits="userSpaceOnUse"><stop stop-color="#151515"/><stop offset="1" stop-color="#3D3D3D"/></linearGradient></defs></svg>